<svg width="356" height="337" fill="none" xmlns="http://www.w3.org/2000/svg"><g opacity=".8"><path d="M178.8 35.098c0-7.8-6.3-14.2-14.2-14.2H14.2c-7.8 0-14.2 6.3-14.2 14.2v227.8c0 7.8 6.3 14.2 14.2 14.2h291c7.8 0 14.2-6.3 14.2-14.2v-199.4c0-7.8-6.3-14.2-14.2-14.2H192.9c-7.7 0-14.1-6.3-14.1-14.2z" fill="#fff" fill-opacity=".07"/><path clip-rule="evenodd" d="M324.5 39.6c10.383 0 18.8-8.417 18.8-18.8 0-10.383-8.417-18.8-18.8-18.8-10.383 0-18.8 8.417-18.8 18.8 0 10.383 8.417 18.8 18.8 18.8z" stroke="#2EE5C0" stroke-width="4" stroke-linecap="round" stroke-linejoin="round"/><path d="M339.414 33.484a2 2 0 1 0-2.828 2.829l2.828-2.829zm12.272 17.929a2 2 0 1 0 2.828-2.829l-2.828 2.829zM75.7 95.098a2 2 0 0 0-4 0h4zm-4 8.7a2 2 0 1 0 4 0h-4zm4 19.6a2 2 0 0 0-4 0h4zm-4 10.9a2 2 0 1 0 4 0h-4zm21.6-17.6a2 2 0 1 0 0-4v4zm-8.8-4a2 2 0 0 0 0 4v-4zm-21.7 4a2 2 0 1 0 0-4v4zm-8.7-4a2 2 0 0 0 0 4v-4zm282.486-76.385l15.1 15.1 2.828-2.829-15.1-15.1-2.828 2.829zM71.7 95.098v8.7h4v-8.7h-4zm0 28.3v10.9h4v-10.9h-4zm21.6-10.7h-8.8v4h8.8v-4zm-30.5 0h-8.7v4h8.7v-4z" fill="#2EE5C0"/><path clip-rule="evenodd" d="M246.9 334.499H53.5c-10 0-18.2-8.2-18.2-18.2v-125.4c0-10 8.2-18.2 18.2-18.2h193.4c10 0 18.2 8.2 18.2 18.2v125.4c0 10-8.2 18.2-18.2 18.2z" stroke="#2EE5C0" stroke-width="4" stroke-linecap="round" stroke-linejoin="round"/><path d="M54 196.201a5.2 5.2 0 1 0 0-10.4 5.2 5.2 0 0 0 0 10.4zm16.9 0a5.2 5.2 0 1 0 0-10.4 5.2 5.2 0 0 0 0 10.4zm16.9 0a5.2 5.2 0 1 0 0-10.4 5.2 5.2 0 0 0 0 10.4z" fill="#2EE5C0"/><path d="M35.5 209.5h228.9" stroke="#2EE5C0" stroke-width="4" stroke-linecap="round" stroke-linejoin="round"/><path d="M135.3 98.2v158.7c0 40 18.2 43.1 26.4 43.1s161.1-4.2 161.1-4.2-23.7-15.7-23.7-52.4V71.9l-134.4-4.4-29.4 30.7z" fill="#027BF3"/><path fill-rule="evenodd" clip-rule="evenodd" d="M162.2 98.802l-26.9-.6 29.7-30.6v28.3c0 1.6-1.3 2.9-2.8 2.9zm24 177.401s.8 19.9-24.5 23.8c13.097 0 51.435-1.171 87.618-2.277 32.33-.988 62.939-1.923 72.282-1.923 19.8 0 23.7-24.1 23.7-24.1l-159.1 4.5z" fill="#00236B"/><path fill-rule="evenodd" clip-rule="evenodd" d="M255.4 166.001c1.9-3.8 2.8-8.5 2.8-14.2 0-4.5-.7-8.7-2.2-12.8-1.5-3.9-3.6-7.4-6.5-10.3-2.9-2.9-6.6-5.2-11.2-6.9-4.6-1.7-10-2.5-16.3-2.5-6.3 0-11.3.6-15.1 1.9-3.8 1.3-7 2.7-9.5 4v12.3c1.9-1.2 4.7-2.5 8.4-3.9 3.7-1.3 8.6-2 14.8-2 5 0 9 .5 12.1 1.7 3.1 1.1 5.5 2.7 7.2 4.5 1.7 1.8 2.8 3.9 3.4 6.3.6 2.4.9 4.9.9 7.4 0 4.4-.9 8-2.6 10.8-1.7 2.8-3.9 5.2-6.6 7.2-2.7 2-5.6 3.8-8.6 5.4-3.1 1.7-5.9 3.5-8.6 5.7-2.7 2.2-4.9 4.8-6.6 8-1.7 3.2-2.6 7.3-2.6 12.3v2.7h11.8v-2.8c0-3 .9-5.6 2.8-7.7 1.9-2.1 4.2-4.1 7-5.8 2.8-1.8 5.8-3.5 9.1-5.3 3.3-1.7 6.3-3.9 9.1-6.5 2.8-2.5 5.1-5.7 7-9.5zm-47.4 65.9c1.8 1.9 4.2 2.8 7 2.8s5.2-.9 7-2.8c1.9-1.9 2.8-4.2 2.8-6.9s-1-5-2.8-6.9c-1.8-1.9-4.2-2.8-7-2.8s-5.2.9-7 2.8c-1.9 1.9-2.8 4.2-2.8 6.9 0 2.8 1 5.1 2.8 6.9z" fill="#fff"/></g></svg>