<svg xmlns="http://www.w3.org/2000/svg" xmlns:xlink="http://www.w3.org/1999/xlink" version="1.1" width="28.3465pt" height="28.3465pt" viewBox="0 0 28.3465 28.3465">
<defs>
<clipPath id="clip_0">
<path transform="matrix(1,0,0,-1,0,28.3465)" d="M0 0H28.346V28.346H0Z"/>
</clipPath>
</defs>
<g id="layer_1" data-name="">
<g clip-path="url(#clip_0)">
<path transform="matrix(1,0,0,-1,0,28.3465)" d="M0 0H28.346V28.346H0ZM20.744 24.094H24.095V23.299H21.63V22.278H23.294V21.483H21.63V20.436H24.095V19.641H20.744ZM20.742 16.395H24.094V15.602H22.864V11.942H21.977V15.602H20.742ZM7.575 5.686C7.575 5.45 7.531 5.242 7.44 5.065 7.354 4.889 7.232 4.739 7.081 4.616 6.93 4.494 6.751 4.401 6.548 4.34 6.342 4.28 6.126 4.248 5.898 4.248 5.671 4.248 5.454 4.28 5.25 4.34 5.045 4.401 4.867 4.494 4.716 4.616 4.563 4.739 4.443 4.889 4.355 5.065 4.266 5.242 4.222 5.45 4.222 5.686V7.289C4.222 7.522 4.269 7.727 4.36 7.905 4.454 8.082 4.578 8.229 4.734 8.348 4.89 8.467 5.068 8.555 5.272 8.616 5.475 8.674 5.684 8.703 5.898 8.703 6.113 8.703 6.322 8.672 6.524 8.61 6.727 8.545 6.907 8.453 7.061 8.332 7.219 8.211 7.342 8.063 7.437 7.883 7.528 7.703 7.575 7.496 7.575 7.264ZM7.564 11.944H6.607L5.907 13.397H5.107V11.944H4.223V16.395H6.279C6.502 16.395 6.696 16.352 6.857 16.27 7.018 16.186 7.151 16.077 7.258 15.944 7.362 15.811 7.44 15.66 7.49 15.493 7.539 15.328 7.564 15.145 7.564 14.926 7.564 14.715 7.549 14.553 7.516 14.428 7.483 14.307 7.437 14.19 7.374 14.08 7.311 13.969 7.234 13.869 7.144 13.776 7.055 13.684 6.944 13.618 6.834 13.547 6.817 13.535 6.793 13.53 6.773 13.52ZM7.44 20.459C7.354 20.282 7.232 20.131 7.081 20.008 6.93 19.887 6.751 19.795 6.548 19.733 6.342 19.672 6.126 19.641 5.898 19.641 5.671 19.641 5.454 19.672 5.25 19.733 5.045 19.795 4.867 19.887 4.716 20.008 4.563 20.131 4.443 20.282 4.355 20.459 4.266 20.637 4.222 20.842 4.222 21.08L4.223 24.094H5.114V21.25C5.114 21.11 5.137 20.993 5.181 20.895 5.226 20.795 5.286 20.715 5.36 20.655 5.434 20.592 5.518 20.547 5.612 20.52 5.706 20.494 5.803 20.481 5.9 20.481 5.999 20.481 6.096 20.494 6.186 20.52 6.28 20.547 6.363 20.592 6.435 20.655 6.512 20.715 6.57 20.795 6.615 20.895 6.661 20.993 6.684 21.11 6.684 21.25L6.683 24.094H7.574L7.575 21.08C7.575 20.842 7.531 20.637 7.44 20.459M15.837 4.25H14.88L14.181 5.705H13.381V4.25H12.496V8.703H14.552C14.775 8.703 14.969 8.661 15.13 8.578 15.291 8.494 15.425 8.383 15.53 8.25 15.636 8.117 15.713 7.969 15.763 7.801 15.812 7.635 15.837 7.453 15.837 7.233 15.837 7.024 15.822 6.86 15.789 6.737 15.756 6.616 15.71 6.498 15.647 6.387 15.584 6.278 15.507 6.176 15.418 6.084 15.327 5.992 15.218 5.924 15.107 5.854 15.09 5.844 15.065 5.836 15.046 5.826ZM15.8 12.649C15.717 12.485 15.6 12.35 15.451 12.243 15.303 12.133 15.128 12.051 14.927 11.996 14.726 11.942 14.508 11.914 14.273 11.914 13.96 11.914 13.664 11.959 13.388 12.047 13.11 12.137 12.814 12.309 12.549 12.534L13.035 13.164C13.234 13.032 13.444 12.893 13.647 12.815 13.85 12.735 14.062 12.684 14.264 12.684 14.402 12.684 14.649 12.709 14.798 12.791 14.991 12.899 15.062 13.071 15.05 13.285 15.036 13.526 14.807 13.653 14.55 13.731 14.245 13.825 13.668 13.944 13.372 14.086 12.908 14.307 12.811 14.524 12.747 14.664 12.576 15.039 12.696 15.535 12.767 15.696 12.949 16.121 13.27 16.258 13.453 16.327 13.633 16.391 13.907 16.422 14.13 16.422 14.46 16.422 14.826 16.369 15.112 16.27 15.391 16.174 15.645 16.032 15.723 15.989L15.363 15.317C15.275 15.366 15.052 15.485 14.793 15.563 14.615 15.616 14.241 15.703 13.923 15.645 13.783 15.619 13.576 15.545 13.506 15.356 13.434 15.159 13.475 15.014 13.54 14.928 13.603 14.83 13.76 14.752 14.08 14.662 14.201 14.627 14.622 14.53 14.772 14.487 15.199 14.368 15.361 14.276 15.588 14.069 15.815 13.86 15.903 13.582 15.908 13.27 15.911 13.057 15.883 12.813 15.8 12.649M15.8 20.348C15.717 20.184 15.6 20.047 15.451 19.942 15.303 19.832 15.128 19.75 14.927 19.694 14.726 19.641 14.508 19.612 14.273 19.612 13.96 19.612 13.664 19.657 13.388 19.746 13.11 19.836 12.814 20.008 12.549 20.233L13.035 20.864C13.234 20.731 13.444 20.592 13.647 20.514 13.85 20.434 14.062 20.383 14.264 20.383 14.402 20.383 14.649 20.409 14.798 20.491 14.991 20.596 15.062 20.77 15.05 20.985 15.036 21.225 14.807 21.352 14.55 21.43 14.245 21.522 13.668 21.643 13.372 21.784 12.908 22.006 12.811 22.221 12.747 22.364 12.576 22.737 12.696 23.233 12.767 23.395 12.949 23.821 13.27 23.957 13.453 24.024 13.633 24.09 13.907 24.121 14.13 24.121 14.46 24.121 14.826 24.067 15.112 23.969 15.391 23.871 15.645 23.731 15.723 23.686L15.363 23.016C15.275 23.065 15.052 23.182 14.793 23.26 14.615 23.315 14.241 23.403 13.923 23.344 13.783 23.319 13.576 23.244 13.506 23.053 13.434 22.858 13.475 22.711 13.54 22.625 13.603 22.528 13.76 22.451 14.08 22.36 14.201 22.326 14.622 22.227 14.772 22.186 15.199 22.065 15.361 21.975 15.588 21.766 15.815 21.559 15.903 21.282 15.908 20.967 15.911 20.756 15.883 20.512 15.8 20.348M22.862 5.713H22.861V4.25H21.974V5.713L20.696 8.703H21.539L22.41 6.53H22.415L23.286 8.703H24.139ZM6.54 15.432C6.645 15.317 6.698 15.145 6.698 14.912 6.698 14.662 6.646 14.471 6.543 14.36 6.44 14.248 6.285 14.194 6.078 14.194H5.107V15.6H6.078C6.28 15.6 6.434 15.543 6.54 15.432M14.813 7.739C14.918 7.625 14.972 7.453 14.972 7.221 14.972 6.969 14.919 6.78 14.815 6.668 14.713 6.557 14.558 6.502 14.351 6.502H13.381V7.909H14.351C14.554 7.909 14.707 7.852 14.813 7.739M6.615 7.448C6.661 7.352 6.684 7.235 6.684 7.094V5.856C6.684 5.717 6.661 5.6 6.615 5.5 6.57 5.401 6.512 5.323 6.435 5.26 6.363 5.2 6.28 5.155 6.186 5.127 6.096 5.1 5.999 5.088 5.9 5.088 5.803 5.088 5.706 5.1 5.612 5.127 5.518 5.155 5.434 5.2 5.36 5.26 5.286 5.323 5.226 5.401 5.181 5.5 5.137 5.6 5.114 5.717 5.114 5.856V7.094C5.114 7.235 5.137 7.352 5.181 7.448 5.226 7.545 5.286 7.623 5.36 7.686 5.434 7.746 5.518 7.791 5.612 7.821 5.706 7.85 5.803 7.864 5.9 7.864 5.999 7.864 6.096 7.85 6.186 7.821 6.28 7.791 6.363 7.746 6.435 7.686 6.512 7.623 6.57 7.545 6.615 7.448" fill="#030405"/>
</g>
</g>
</svg>
